<?xml version="1.0" standalone="no"?><!-- Generator: Gravit.io --><svg xmlns="http://www.w3.org/2000/svg" xmlns:xlink="http://www.w3.org/1999/xlink" style="isolation:isolate" viewBox="816 600.5 190 49" width="190" height="49"><defs><clipPath id="_clipPath_uifqRKmsRBdQEECCYBzDRPCZawVlxzfw"><rect x="816" y="600.5" width="190" height="49"/></clipPath></defs><g clip-path="url(#_clipPath_uifqRKmsRBdQEECCYBzDRPCZawVlxzfw)"><path d=" M 1002 606.5 L 1001.95 605.8 L 1002 605.85 Q 1001.65 604.5 1000 604.5 L 822 604.5 Q 820.35 604.5 820.1 605.8 L 820.05 606 L 820 606.5 L 820 639.5 Q 820 641.5 822 641.5 L 1000 641.5 Q 1002 641.5 1002 639.5 L 1002 606.5 Z  M 1000 602.5 Q 1003.5 602.5 1003.95 605.55 L 1004 606.5 L 1004 639.5 Q 1004 643.5 1000 643.5 L 822 643.5 Q 818 643.5 818 639.5 L 818 606.5 L 818.1 605.55 Q 818.5 602.5 822 602.5 L 1000 602.5 Z " fill="rgb(255,255,255)"/><path d=" M 1000 602.5 L 822 602.5 Q 818.5 602.5 818.1 605.55 L 818 606.5 L 818 639.5 Q 818 643.5 822 643.5 L 1000 643.5 Q 1004 643.5 1004 639.5 L 1004 606.5 L 1003.95 605.55 Q 1003.5 602.5 1000 602.5 Z  M 816 639.75 L 816 606.5 Q 816 600.5 822 600.5 L 1000 600.5 Q 1006 600.5 1006 606.5 L 1006 639.75 Q 1005.85 645.5 1000 645.5 L 822 645.5 Q 816.15 645.5 816 639.75 Z " fill="rgb(213,213,213)"/><path d=" M 1002 606.5 L 1002 639.5 Q 1002 641.5 1000 641.5 L 822 641.5 Q 820 641.5 820 639.5 L 820 606.5 L 820.05 606 L 820.1 605.8 Q 820.35 604.5 822 604.5 L 1000 604.5 Q 1001.65 604.5 1002 605.85 L 1001.95 605.8 L 1002 606.5 Z " fill="rgb(238,238,238)"/><path d=" M 1006 639.75 L 1006 643.5 Q 1006 649.5 1000 649.5 L 822 649.5 Q 816 649.5 816 643.5 L 816 639.75 Q 816.15 645.5 822 645.5 L 1000 645.5 Q 1005.85 645.5 1006 639.75 Z " fill="rgb(170,170,170)"/></g></svg>