<?xml version="1.0" standalone="no"?><!-- Generator: Gravit.io --><svg xmlns="http://www.w3.org/2000/svg" xmlns:xlink="http://www.w3.org/1999/xlink" style="isolation:isolate" viewBox="816 602.5 190 45" width="190" height="45"><defs><clipPath id="_clipPath_0N3paTlsSvIiF4sNV1bGEAGkffYe77I9"><rect x="816" y="602.5" width="190" height="45"/></clipPath></defs><g clip-path="url(#_clipPath_0N3paTlsSvIiF4sNV1bGEAGkffYe77I9)"><path d=" M 1002 607.85 Q 1001.65 606.5 1000 606.5 L 822 606.5 Q 820.35 606.5 820.1 607.8 L 820.05 608 L 820 608.5 L 820 641.5 L 820.05 642.1 L 820.1 642.25 Q 820.35 643.5 822 643.5 L 1000 643.5 Q 1001.6 643.5 1001.95 642.3 L 1002 641.5 L 1002 608.5 L 1001.95 607.8 L 1002 607.85 Z  M 1003.95 607.55 L 1004 608.5 L 1004 641.5 L 1003.95 642.5 Q 1003.5 645.5 1000 645.5 L 822 645.5 Q 818.5 645.5 818.1 642.5 L 818 641.5 L 818 608.5 L 818.1 607.55 Q 818.5 604.5 822 604.5 L 1000 604.5 Q 1003.5 604.5 1003.95 607.55 Z " fill="rgb(255,255,255)"/><path d=" M 1003.95 607.55 Q 1003.5 604.5 1000 604.5 L 822 604.5 Q 818.5 604.5 818.1 607.55 L 818 608.5 L 818 641.5 L 818.1 642.5 Q 818.5 645.5 822 645.5 L 1000 645.5 Q 1003.5 645.5 1003.95 642.5 L 1004 641.5 L 1004 608.5 L 1003.95 607.55 Z  M 1006 608.5 L 1006 641.5 L 1006 641.75 Q 1005.85 647.5 1000 647.5 L 822 647.5 L 821.75 647.5 L 821.6 647.5 L 821.4 647.5 L 821.3 647.5 L 821.2 647.5 L 821.1 647.5 Q 816.4 647.1 816.05 642.35 L 816 641.75 L 816 608.5 Q 816 602.5 822 602.5 L 1000 602.5 Q 1006 602.5 1006 608.5 Z " fill="rgb(213,213,213)"/><path d=" M 1002 607.85 L 1001.95 607.8 L 1002 608.5 L 1002 641.5 L 1001.95 642.3 Q 1001.6 643.5 1000 643.5 L 822 643.5 Q 820.35 643.5 820.1 642.25 L 820.05 642.1 L 820 641.5 L 820 608.5 L 820.05 608 L 820.1 607.8 Q 820.35 606.5 822 606.5 L 1000 606.5 Q 1001.65 606.5 1002 607.85 Z " fill="rgb(238,238,238)"/></g></svg>