<?xml version="1.0" standalone="no"?><!-- Generator: Gravit.io --><svg xmlns="http://www.w3.org/2000/svg" xmlns:xlink="http://www.w3.org/1999/xlink" style="isolation:isolate" viewBox="891.591 604.997 49 45" width="49" height="45"><defs><clipPath id="_clipPath_dndZpO3FhDqNPy6pLhZRnAfRTX9er2H1"><rect x="891.591" y="604.997" width="49" height="45"/></clipPath></defs><g clip-path="url(#_clipPath_dndZpO3FhDqNPy6pLhZRnAfRTX9er2H1)"><path d=" M 934.591 606.997 L 897.591 606.997 Q 894.091 606.997 893.691 610.047 L 893.591 610.997 L 893.591 643.997 L 893.691 644.997 Q 894.091 647.997 897.591 647.997 L 934.591 647.997 Q 938.091 647.997 938.541 644.997 L 938.591 643.997 L 938.591 610.997 L 938.541 610.047 Q 938.091 606.997 934.591 606.997 Z  M 940.591 610.997 L 940.591 643.997 L 940.591 644.247 Q 940.441 649.997 934.591 649.997 L 897.591 649.997 L 897.341 649.997 L 897.191 649.997 L 896.991 649.997 L 896.891 649.997 L 896.791 649.997 L 896.691 649.997 Q 891.991 649.597 891.641 644.847 L 891.591 644.247 L 891.591 643.997 L 891.591 610.997 Q 891.591 604.997 897.591 604.997 L 934.591 604.997 Q 940.591 604.997 940.591 610.997 Z " fill="rgb(25,137,184)"/><path d=" M 936.591 610.997 L 936.541 610.297 L 936.591 610.347 Q 936.241 608.997 934.591 608.997 L 897.591 608.997 Q 895.941 608.997 895.691 610.297 L 895.641 610.497 L 895.591 610.997 L 895.591 643.997 L 895.641 644.597 L 895.691 644.747 Q 895.941 645.997 897.591 645.997 L 934.591 645.997 Q 936.191 645.997 936.541 644.797 L 936.591 643.997 L 936.591 610.997 Z  M 934.591 606.997 Q 938.091 606.997 938.541 610.047 L 938.591 610.997 L 938.591 643.997 L 938.541 644.997 Q 938.091 647.997 934.591 647.997 L 897.591 647.997 Q 894.091 647.997 893.691 644.997 L 893.591 643.997 L 893.591 610.997 L 893.691 610.047 Q 894.091 606.997 897.591 606.997 L 934.591 606.997 Z " fill="rgb(53,186,243)"/><path d=" M 936.591 610.997 L 936.591 643.997 L 936.541 644.797 Q 936.191 645.997 934.591 645.997 L 897.591 645.997 Q 895.941 645.997 895.691 644.747 L 895.641 644.597 L 895.591 643.997 L 895.591 610.997 L 895.641 610.497 L 895.691 610.297 Q 895.941 608.997 897.591 608.997 L 934.591 608.997 Q 936.241 608.997 936.591 610.347 L 936.541 610.297 L 936.591 610.997 Z " fill="rgb(30,167,225)"/></g></svg>