<?xml version="1.0" standalone="no"?><!-- Generator: Gravit.io --><svg xmlns="http://www.w3.org/2000/svg" xmlns:xlink="http://www.w3.org/1999/xlink" style="isolation:isolate" viewBox="885 600.5 49 49" width="49" height="49"><defs><clipPath id="_clipPath_puFnVn4ocruJnpfanRGJ2Ct74Ol2ggEG"><rect x="885" y="600.5" width="49" height="49"/></clipPath></defs><g clip-path="url(#_clipPath_puFnVn4ocruJnpfanRGJ2Ct74Ol2ggEG)"><path d=" M 930 606.5 L 929.95 605.8 L 930 605.85 Q 929.65 604.5 928 604.5 L 891 604.5 Q 889.35 604.5 889.1 605.8 L 889.05 606 L 889 606.5 L 889 639.5 Q 889 641.5 891 641.5 L 928 641.5 Q 930 641.5 930 639.5 L 930 606.5 Z  M 928 602.5 Q 931.5 602.5 931.95 605.55 L 932 606.5 L 932 639.5 Q 932 643.5 928 643.5 L 891 643.5 Q 887 643.5 887 639.5 L 887 606.5 L 887.1 605.55 Q 887.5 602.5 891 602.5 L 928 602.5 Z " fill="rgb(53,186,243)"/><path d=" M 928 602.5 L 891 602.5 Q 887.5 602.5 887.1 605.55 L 887 606.5 L 887 639.5 Q 887 643.5 891 643.5 L 928 643.5 Q 932 643.5 932 639.5 L 932 606.5 L 931.95 605.55 Q 931.5 602.5 928 602.5 Z  M 885 639.75 L 885 606.5 Q 885 600.5 891 600.5 L 928 600.5 Q 934 600.5 934 606.5 L 934 639.75 Q 933.85 645.5 928 645.5 L 891 645.5 Q 885.15 645.5 885 639.75 Z " fill="rgb(25,137,184)"/><path d=" M 930 606.5 L 930 639.5 Q 930 641.5 928 641.5 L 891 641.5 Q 889 641.5 889 639.5 L 889 606.5 L 889.05 606 L 889.1 605.8 Q 889.35 604.5 891 604.5 L 928 604.5 Q 929.65 604.5 930 605.85 L 929.95 605.8 L 930 606.5 Z " fill="rgb(30,167,225)"/><path d=" M 934 639.75 L 934 643.5 Q 934 649.5 928 649.5 L 891 649.5 Q 885 649.5 885 643.5 L 885 639.75 Q 885.15 645.5 891 645.5 L 928 645.5 Q 933.85 645.5 934 639.75 Z " fill="rgb(22,110,147)"/></g></svg>