<?xml version="1.0" standalone="no"?><!-- Generator: Gravit.io --><svg xmlns="http://www.w3.org/2000/svg" xmlns:xlink="http://www.w3.org/1999/xlink" style="isolation:isolate" viewBox="891.5 609.5 39 31" width="39" height="31"><defs><clipPath id="_clipPath_kmrvO4nEtDNXb849TP3oHT31iczMM3ou"><rect x="891.5" y="609.5" width="39" height="31"/></clipPath></defs><g clip-path="url(#_clipPath_kmrvO4nEtDNXb849TP3oHT31iczMM3ou)"><path d=" M 905.6 611.5 L 904.8 611.65 L 904.2 612.05 L 894.1 622.05 Q 893.5 622.65 893.5 623.5 Q 893.5 624.35 894.1 624.9 L 904.2 634.9 L 904.75 635.3 L 905.6 635.5 L 926.5 635.5 Q 927.35 635.5 927.95 634.9 Q 928.5 634.35 928.5 633.5 L 928.5 613.5 Q 928.5 612.65 927.95 612.05 Q 927.35 611.5 926.5 611.5 L 905.6 611.5 Z  M 891.55 624 L 891.5 623.5 Q 891.5 621.85 892.7 620.65 L 902.8 610.65 Q 903.95 609.5 905.6 609.5 L 926.6 609.5 Q 928.2 609.55 929.35 610.65 Q 930.5 611.85 930.5 613.5 L 930.5 633.6 Q 930.45 635.2 929.35 636.3 L 929.35 636.35 Q 928.2 637.45 926.6 637.5 L 905.6 637.5 Q 903.95 637.5 902.8 636.35 L 892.7 626.35 Q 891.7 625.35 891.55 624 Z " fill="rgb(95,177,58)"/><path d=" M 905.6 611.5 L 926.5 611.5 Q 927.35 611.5 927.95 612.05 Q 928.5 612.65 928.5 613.5 L 928.5 633.5 Q 928.5 634.35 927.95 634.9 Q 927.35 635.5 926.5 635.5 L 905.6 635.5 L 904.75 635.3 L 904.2 634.9 L 894.1 624.9 Q 893.5 624.35 893.5 623.5 Q 893.5 622.65 894.1 622.05 L 904.2 612.05 L 904.8 611.65 L 905.6 611.5 Z  M 926.5 633.5 L 926.5 613.5 L 905.6 613.5 L 895.5 623.5 L 905.6 633.5 L 926.5 633.5 Z " fill="rgb(136,224,96)"/><path d=" M 930.5 633.6 L 930.5 636.5 Q 930.5 638.15 929.35 639.3 L 929.35 639.35 Q 928.2 640.45 926.6 640.5 L 905.6 640.5 Q 903.95 640.5 902.8 639.35 L 892.7 629.35 Q 891.5 628.15 891.5 626.5 L 891.55 626 L 891.5 625.5 L 891.55 625 L 891.5 624.5 L 891.55 624 Q 891.7 625.35 892.7 626.35 L 902.8 636.35 Q 903.95 637.5 905.6 637.5 L 926.6 637.5 Q 928.2 637.45 929.35 636.35 L 929.35 636.3 Q 930.45 635.2 930.5 633.6 Z " fill="rgb(0,0,0)" fill-opacity="0.10196078431372549"/><path d=" M 926.5 633.5 L 905.6 633.5 L 895.5 623.5 L 905.6 613.5 L 926.5 613.5 L 926.5 633.5 Z " fill="rgb(115,205,75)"/></g></svg>