<?xml version="1.0" standalone="no"?><!-- Generator: Gravit.io --><svg xmlns="http://www.w3.org/2000/svg" xmlns:xlink="http://www.w3.org/1999/xlink" style="isolation:isolate" viewBox="891.5 609.5 39 31" width="39" height="31"><defs><clipPath id="_clipPath_NzWNKGyhIly9izLqQc2qRjfEw7UX3u6t"><rect x="891.5" y="609.5" width="39" height="31"/></clipPath></defs><g clip-path="url(#_clipPath_NzWNKGyhIly9izLqQc2qRjfEw7UX3u6t)"><path d=" M 917.2 611.65 Q 917.55 611.8 917.8 612.05 L 927.9 622.05 Q 928.5 622.65 928.5 623.5 Q 928.5 624.35 927.9 624.9 L 917.8 634.9 L 917.25 635.3 L 916.4 635.5 L 895.5 635.5 Q 894.65 635.5 894.05 634.9 Q 893.5 634.35 893.5 633.5 L 893.5 613.5 Q 893.5 612.65 894.05 612.05 Q 894.65 611.5 895.5 611.5 L 916.4 611.5 L 917.2 611.65 Z  M 895.5 633.5 L 916.4 633.5 L 926.5 623.5 L 916.4 613.5 L 895.5 613.5 L 895.5 633.5 Z " fill="rgb(250,129,50)"/><path d=" M 917.2 611.65 L 916.4 611.5 L 895.5 611.5 Q 894.65 611.5 894.05 612.05 Q 893.5 612.65 893.5 613.5 L 893.5 633.5 Q 893.5 634.35 894.05 634.9 Q 894.65 635.5 895.5 635.5 L 916.4 635.5 L 917.25 635.3 L 917.8 634.9 L 927.9 624.9 Q 928.5 624.35 928.5 623.5 Q 928.5 622.65 927.9 622.05 L 917.8 612.05 Q 917.55 611.8 917.2 611.65 Z  M 891.5 633.6 L 891.5 613.5 Q 891.5 611.85 892.65 610.65 Q 893.8 609.55 895.4 609.5 L 916.4 609.5 Q 918.05 609.5 919.2 610.65 L 929.3 620.65 Q 930.5 621.85 930.5 623.5 L 930.45 624 Q 930.3 625.35 929.3 626.35 L 919.2 636.35 Q 918.05 637.5 916.4 637.5 L 895.4 637.5 Q 893.8 637.45 892.65 636.35 L 892.65 636.3 Q 891.55 635.2 891.5 633.6 Z " fill="rgb(205,93,18)"/><path d=" M 891.5 633.6 Q 891.55 635.2 892.65 636.3 L 892.65 636.35 Q 893.8 637.45 895.4 637.5 L 916.4 637.5 Q 918.05 637.5 919.2 636.35 L 929.3 626.35 Q 930.3 625.35 930.45 624 L 930.5 624.5 L 930.45 625 L 930.5 625.5 L 930.45 626 L 930.5 626.5 Q 930.5 628.15 929.3 629.35 L 919.2 639.35 Q 918.05 640.5 916.4 640.5 L 895.4 640.5 Q 893.8 640.45 892.65 639.35 L 892.65 639.3 Q 891.5 638.15 891.5 636.5 L 891.5 633.6 Z " fill="rgb(0,0,0)" fill-opacity="0.10196078431372549"/><path d=" M 895.5 633.5 L 895.5 613.5 L 916.4 613.5 L 926.5 623.5 L 916.4 633.5 L 895.5 633.5 Z " fill="rgb(232,106,23)"/></g></svg>