<?xml version="1.0" standalone="no"?><!-- Generator: Gravit.io --><svg xmlns="http://www.w3.org/2000/svg" xmlns:xlink="http://www.w3.org/1999/xlink" style="isolation:isolate" viewBox="891.591 602.997 49 49" width="49" height="49"><defs><clipPath id="_clipPath_W1ZLm0S6GJf6MVYvYspcPhKCIv6Qz4sv"><rect x="891.591" y="602.997" width="49" height="49"/></clipPath></defs><g clip-path="url(#_clipPath_W1ZLm0S6GJf6MVYvYspcPhKCIv6Qz4sv)"><path d=" M 938.591 608.997 L 938.591 641.997 Q 938.591 645.997 934.591 645.997 L 897.591 645.997 Q 893.591 645.997 893.591 641.997 L 893.591 608.997 L 893.691 608.047 L 893.991 606.997 Q 894.741 604.997 897.591 604.997 L 934.591 604.997 Q 937.441 604.997 938.291 606.997 L 938.541 608.047 L 938.591 608.997 Z  M 897.591 606.997 Q 896.291 606.997 895.891 607.697 L 895.841 607.797 L 895.691 608.397 L 895.641 608.497 L 895.591 608.997 L 895.591 641.997 Q 895.591 643.997 897.591 643.997 L 934.591 643.997 Q 936.591 643.997 936.591 641.997 L 936.591 608.997 L 936.541 608.297 L 936.591 608.397 L 936.441 607.797 Q 935.941 606.997 934.591 606.997 L 897.591 606.997 Z " fill="rgb(250,129,50)"/><path d=" M 891.591 642.247 L 891.591 608.997 L 891.791 606.997 Q 892.691 602.997 897.591 602.997 L 934.591 602.997 Q 939.491 602.997 940.391 606.997 L 940.591 608.997 L 940.591 642.247 Q 940.441 647.997 934.591 647.997 L 897.591 647.997 Q 891.741 647.997 891.591 642.247 Z  M 938.591 608.997 L 938.541 608.047 L 938.291 606.997 Q 937.441 604.997 934.591 604.997 L 897.591 604.997 Q 894.741 604.997 893.991 606.997 L 893.691 608.047 L 893.591 608.997 L 893.591 641.997 Q 893.591 645.997 897.591 645.997 L 934.591 645.997 Q 938.591 645.997 938.591 641.997 L 938.591 608.997 Z " fill="rgb(205,93,18)"/><path d=" M 940.591 642.247 L 940.591 645.997 Q 940.591 651.447 935.641 651.947 L 934.591 651.997 L 897.591 651.997 L 896.541 651.947 Q 891.591 651.447 891.591 645.997 L 891.591 642.247 Q 891.741 647.997 897.591 647.997 L 934.591 647.997 Q 940.441 647.997 940.591 642.247 Z " fill="rgb(170,78,17)"/><path d=" M 897.591 606.997 L 934.591 606.997 Q 935.941 606.997 936.441 607.797 L 936.591 608.397 L 936.541 608.297 L 936.591 608.997 L 936.591 641.997 Q 936.591 643.997 934.591 643.997 L 897.591 643.997 Q 895.591 643.997 895.591 641.997 L 895.591 608.997 L 895.641 608.497 L 895.691 608.397 L 895.841 607.797 L 895.891 607.697 Q 896.291 606.997 897.591 606.997 Z " fill="rgb(232,106,23)"/></g></svg>