<?xml version="1.0" standalone="no"?><!-- Generator: Gravit.io --><svg xmlns="http://www.w3.org/2000/svg" xmlns:xlink="http://www.w3.org/1999/xlink" style="isolation:isolate" viewBox="886.5 602.5 49 45" width="49" height="45"><defs><clipPath id="_clipPath_CDd18TvElCpjyjHSeIvBrSbNs6Pqm1aV"><rect x="886.5" y="602.5" width="49" height="45"/></clipPath></defs><g clip-path="url(#_clipPath_CDd18TvElCpjyjHSeIvBrSbNs6Pqm1aV)"><path d=" M 890.6 607.8 L 890.55 608 L 890.5 608.5 L 890.5 641.5 L 890.55 642.1 L 890.6 642.25 Q 890.85 643.5 892.5 643.5 L 929.5 643.5 Q 931.1 643.5 931.45 642.3 L 931.5 641.5 L 931.5 608.5 L 931.45 607.8 L 931.5 607.85 Q 931.15 606.5 929.5 606.5 L 892.5 606.5 Q 890.85 606.5 890.6 607.8 Z  M 888.6 607.55 Q 889 604.5 892.5 604.5 L 929.5 604.5 Q 933 604.5 933.45 607.55 L 933.5 608.5 L 933.5 641.5 L 933.45 642.5 Q 933 645.5 929.5 645.5 L 892.5 645.5 Q 889 645.5 888.6 642.5 L 888.5 641.5 L 888.5 608.5 L 888.6 607.55 Z " fill="rgb(255,255,255)"/><path d=" M 888.6 607.55 L 888.5 608.5 L 888.5 641.5 L 888.6 642.5 Q 889 645.5 892.5 645.5 L 929.5 645.5 Q 933 645.5 933.45 642.5 L 933.5 641.5 L 933.5 608.5 L 933.45 607.55 Q 933 604.5 929.5 604.5 L 892.5 604.5 Q 889 604.5 888.6 607.55 Z  M 892.5 602.5 L 929.5 602.5 Q 935.5 602.5 935.5 608.5 L 935.5 641.5 L 935.5 641.75 Q 935.35 647.5 929.5 647.5 L 892.5 647.5 L 892.25 647.5 L 892.1 647.5 L 891.9 647.5 L 891.8 647.5 L 891.7 647.5 L 891.6 647.5 Q 886.9 647.1 886.55 642.35 L 886.5 641.75 L 886.5 608.5 Q 886.5 602.5 892.5 602.5 Z " fill="rgb(213,213,213)"/><path d=" M 890.6 607.8 Q 890.85 606.5 892.5 606.5 L 929.5 606.5 Q 931.15 606.5 931.5 607.85 L 931.45 607.8 L 931.5 608.5 L 931.5 641.5 L 931.45 642.3 Q 931.1 643.5 929.5 643.5 L 892.5 643.5 Q 890.85 643.5 890.6 642.25 L 890.55 642.1 L 890.5 641.5 L 890.5 608.5 L 890.55 608 L 890.6 607.8 Z " fill="rgb(238,238,238)"/></g></svg>