<?xml version="1.0" standalone="no"?><!-- Generator: Gravit.io --><svg xmlns="http://www.w3.org/2000/svg" xmlns:xlink="http://www.w3.org/1999/xlink" style="isolation:isolate" viewBox="886.5 600.5 49 49" width="49" height="49"><defs><clipPath id="_clipPath_cIbtOCdSLsemaPKQULOUniBkCYpTsIHu"><rect x="886.5" y="600.5" width="49" height="49"/></clipPath></defs><g clip-path="url(#_clipPath_cIbtOCdSLsemaPKQULOUniBkCYpTsIHu)"><path d=" M 888.6 605.55 Q 889 602.5 892.5 602.5 L 929.5 602.5 Q 933 602.5 933.45 605.55 L 933.5 606.5 L 933.5 639.5 Q 933.5 643.5 929.5 643.5 L 892.5 643.5 Q 888.5 643.5 888.5 639.5 L 888.5 606.5 L 888.6 605.55 Z  M 890.6 605.8 L 890.55 606 L 890.5 606.5 L 890.5 639.5 Q 890.5 641.5 892.5 641.5 L 929.5 641.5 Q 931.5 641.5 931.5 639.5 L 931.5 606.5 L 931.45 605.8 L 931.5 605.85 Q 931.15 604.5 929.5 604.5 L 892.5 604.5 Q 890.85 604.5 890.6 605.8 Z " fill="rgb(255,255,255)"/><path d=" M 890.6 605.8 Q 890.85 604.5 892.5 604.5 L 929.5 604.5 Q 931.15 604.5 931.5 605.85 L 931.45 605.8 L 931.5 606.5 L 931.5 639.5 Q 931.5 641.5 929.5 641.5 L 892.5 641.5 Q 890.5 641.5 890.5 639.5 L 890.5 606.5 L 890.55 606 L 890.6 605.8 Z " fill="rgb(238,238,238)"/><path d=" M 886.5 639.75 L 886.5 606.5 Q 886.5 600.5 892.5 600.5 L 929.5 600.5 Q 935.5 600.5 935.5 606.5 L 935.5 639.75 Q 935.35 645.5 929.5 645.5 L 892.5 645.5 Q 886.65 645.5 886.5 639.75 Z  M 888.6 605.55 L 888.5 606.5 L 888.5 639.5 Q 888.5 643.5 892.5 643.5 L 929.5 643.5 Q 933.5 643.5 933.5 639.5 L 933.5 606.5 L 933.45 605.55 Q 933 602.5 929.5 602.5 L 892.5 602.5 Q 889 602.5 888.6 605.55 Z " fill="rgb(213,213,213)"/><path d=" M 935.5 639.75 L 935.5 643.5 Q 935.5 649.5 929.5 649.5 L 892.5 649.5 Q 886.5 649.5 886.5 643.5 L 886.5 639.75 Q 886.65 645.5 892.5 645.5 L 929.5 645.5 Q 935.35 645.5 935.5 639.75 Z " fill="rgb(170,170,170)"/></g></svg>