<?xml version="1.0" standalone="no"?><!-- Generator: Gravit.io --><svg xmlns="http://www.w3.org/2000/svg" xmlns:xlink="http://www.w3.org/1999/xlink" style="isolation:isolate" viewBox="891.591 602.997 49 49" width="49" height="49"><defs><clipPath id="_clipPath_pbQHNbBDNXz9lhzt1lWQvMXUbcucCPkQ"><rect x="891.591" y="602.997" width="49" height="49"/></clipPath></defs><g clip-path="url(#_clipPath_pbQHNbBDNXz9lhzt1lWQvMXUbcucCPkQ)"><path d=" M 934.591 604.997 Q 938.091 604.997 938.541 608.047 L 938.591 608.997 L 938.591 641.997 Q 938.591 645.997 934.591 645.997 L 897.591 645.997 Q 893.591 645.997 893.591 641.997 L 893.591 608.997 L 893.691 608.047 Q 894.091 604.997 897.591 604.997 L 934.591 604.997 Z  M 936.541 608.297 L 936.591 608.347 Q 936.241 606.997 934.591 606.997 L 897.591 606.997 Q 895.941 606.997 895.691 608.297 L 895.641 608.497 L 895.591 608.997 L 895.591 641.997 Q 895.591 643.997 897.591 643.997 L 934.591 643.997 Q 936.591 643.997 936.591 641.997 L 936.591 608.997 L 936.541 608.297 Z " fill="rgb(255,217,72)"/><path d=" M 936.541 608.297 L 936.591 608.997 L 936.591 641.997 Q 936.591 643.997 934.591 643.997 L 897.591 643.997 Q 895.591 643.997 895.591 641.997 L 895.591 608.997 L 895.641 608.497 L 895.691 608.297 Q 895.941 606.997 897.591 606.997 L 934.591 606.997 Q 936.241 606.997 936.591 608.347 L 936.541 608.297 Z " fill="rgb(255,204,0)"/><path d=" M 934.591 604.997 L 897.591 604.997 Q 894.091 604.997 893.691 608.047 L 893.591 608.997 L 893.591 641.997 Q 893.591 645.997 897.591 645.997 L 934.591 645.997 Q 938.591 645.997 938.591 641.997 L 938.591 608.997 L 938.541 608.047 Q 938.091 604.997 934.591 604.997 Z  M 891.591 642.247 L 891.591 608.997 Q 891.591 602.997 897.591 602.997 L 934.591 602.997 Q 940.591 602.997 940.591 608.997 L 940.591 642.247 Q 940.441 647.997 934.591 647.997 L 897.591 647.997 Q 891.741 647.997 891.591 642.247 Z " fill="rgb(205,164,0)"/><path d=" M 891.591 642.247 Q 891.741 647.997 897.591 647.997 L 934.591 647.997 Q 940.441 647.997 940.591 642.247 L 940.591 645.997 Q 940.591 651.997 934.591 651.997 L 897.591 651.997 Q 891.591 651.997 891.591 645.997 L 891.591 642.247 Z " fill="rgb(168,134,0)"/></g></svg>